<?xml version="1.0" standalone="no"?>
<!DOCTYPE svg PUBLIC "-//W3C//DTD SVG 20010904//EN"
 "http://www.w3.org/TR/2001/REC-SVG-20010904/DTD/svg10.dtd">
<svg version="1.0" xmlns="http://www.w3.org/2000/svg"
 width="1024.000000pt" height="1024.000000pt" viewBox="0 0 1024.000000 1024.000000"
 preserveAspectRatio="xMidYMid meet">

<g transform="translate(0.000000,1024.000000) scale(0.100000,-0.100000)"
fill="#000000" stroke="none">
<path d="M5589 9017 c-63 -45 -238 -167 -387 -272 l-272 -189 0 -1011 0 -1010
106 -63 c60 -36 110 -60 117 -55 7 4 108 74 225 155 118 81 217 148 220 148 4
0 6 -126 4 -279 l-3 -279 107 -61 c58 -34 108 -61 110 -61 2 0 5 160 6 354 l3
355 213 -161 212 -161 0 -313 0 -312 113 -65 c61 -35 114 -63 118 -61 3 1 6
646 8 1432 l3 1429 -229 169 c-125 92 -297 219 -381 281 -85 62 -159 113 -165
112 -7 0 -64 -37 -128 -82z m461 -433 l222 -165 -4 -370 c-1 -203 -5 -368 -8
-366 -3 1 -103 76 -222 166 l-218 163 0 369 c0 203 2 369 4 369 3 0 104 -75
226 -166z m-454 -401 c-6 -7 -378 284 -375 293 2 5 87 66 189 137 l185 127 3
-276 c1 -152 1 -279 -2 -281z m-241 -83 c102 -74 185 -138 185 -141 0 -5 -345
-264 -376 -282 -12 -7 -14 38 -14 278 0 199 3 286 11 283 6 -2 93 -64 194
-138z m687 -513 l213 -163 -3 -359 c-2 -198 -5 -361 -6 -362 -1 -2 -98 70
-214 158 l-212 161 0 364 c0 200 2 364 4 364 3 0 101 -73 218 -163z m-446
-395 c-3 -2 -31 16 -63 40 -32 25 -110 82 -173 127 -63 46 -119 87 -124 91 -5
5 74 70 175 145 l184 136 3 -267 c1 -147 0 -269 -2 -272z m-244 -92 c103 -80
187 -148 187 -152 1 -4 -72 -57 -161 -119 -90 -62 -178 -124 -195 -137 l-33
-24 0 292 c0 160 4 290 8 288 4 -1 92 -68 194 -148z"/>
<path d="M4610 8387 c-91 -57 -331 -203 -535 -326 -627 -379 -658 -399 -717
-449 -116 -98 -201 -229 -250 -382 -21 -67 -23 -94 -23 -255 0 -176 1 -182 31
-268 77 -213 170 -311 429 -447 468 -247 1518 -810 1812 -971 183 -102 213
-122 197 -139 -7 -7 -226 -10 -760 -8 l-749 3 -57 27 c-143 67 -238 223 -238
391 l0 42 -336 0 -336 0 5 -145 c6 -177 26 -261 102 -415 135 -277 383 -478
703 -568 75 -21 92 -21 832 -25 786 -3 883 0 1017 38 261 75 499 272 620 515
59 117 106 300 114 439 l3 50 -219 119 c-121 65 -371 201 -555 302 -184 100
-544 294 -800 430 -1196 636 -1110 584 -1110 674 0 92 -52 56 868 610 l142 86
0 387 c0 304 -3 388 -12 388 -7 -1 -87 -47 -178 -103z"/>
<path d="M1859 3850 c-126 -12 -222 -50 -300 -119 -149 -131 -182 -348 -78
-512 66 -103 173 -160 430 -224 220 -56 285 -94 296 -174 7 -50 -11 -95 -46
-120 -89 -64 -301 -68 -481 -9 -70 22 -188 78 -232 110 l-28 19 0 -148 0 -149
74 -37 c41 -20 114 -49 163 -64 81 -24 102 -27 263 -27 139 0 188 3 239 17
145 41 254 121 307 224 27 55 29 65 29 183 0 148 -15 190 -92 268 -69 69 -168
113 -381 172 -260 71 -302 97 -302 187 0 38 6 51 33 78 98 98 340 85 595 -31
41 -19 76 -34 78 -34 2 0 4 58 4 130 l0 129 -44 26 c-141 82 -339 122 -527
105z"/>
<path d="M3183 3813 c-17 -50 -536 -1360 -544 -1376 -9 -17 -1 -17 152 -15
l162 3 52 133 52 134 310 5 310 6 31 -84 c16 -46 40 -110 52 -141 l21 -58 165
0 c154 0 164 1 155 18 -5 9 -131 321 -281 692 -150 371 -274 681 -277 688 -4
9 -49 12 -179 12 -157 0 -175 -2 -181 -17z m250 -463 c25 -74 68 -191 95 -260
l49 -125 -205 -3 c-113 -1 -206 -1 -208 1 -4 4 40 122 133 350 42 103 80 184
83 180 4 -5 28 -69 53 -143z"/>
<path d="M4310 3125 l0 -705 480 0 480 0 0 140 0 140 -330 0 -330 0 0 565 0
565 -150 0 -150 0 0 -705z"/>
<path d="M5520 3125 l0 -705 150 0 150 0 0 705 0 705 -150 0 -150 0 0 -705z"/>
<path d="M6120 3342 c0 -405 3 -498 15 -547 47 -181 171 -309 359 -372 74 -25
95 -27 236 -27 144 0 161 1 235 27 148 52 259 146 320 271 51 104 55 152 55
664 l0 472 -150 0 -150 0 0 -445 c0 -542 -5 -577 -101 -659 -62 -52 -122 -69
-233 -64 -134 6 -207 52 -258 163 -23 50 -23 53 -26 528 l-3 477 -149 0 -150
0 0 -488z"/>
<path d="M7630 3125 l0 -705 145 0 145 0 0 471 0 470 43 -63 c24 -35 166 -246
317 -470 l273 -408 154 0 153 0 0 705 0 705 -145 0 -145 0 -2 -476 -3 -475
-320 475 -320 476 -147 0 -148 0 0 -705z"/>
<path d="M3543 1870 c-245 -49 -300 -381 -83 -504 51 -29 62 -31 151 -31 80 0
104 4 147 24 l51 24 0 119 -1 118 -109 0 -109 0 0 -40 0 -40 60 0 60 0 0 -50
0 -49 -42 -12 c-90 -24 -188 15 -223 86 -26 56 -18 151 18 198 51 67 160 85
250 42 l39 -18 23 29 c14 16 23 34 22 39 -5 18 -111 63 -162 68 -27 3 -69 1
-92 -3z"/>
<path d="M2082 1604 l3 -265 188 -4 187 -3 0 49 0 49 -140 0 -140 0 0 65 0 65
120 0 120 0 0 45 0 45 -120 0 -120 0 0 60 0 60 135 0 135 0 0 50 0 50 -185 0
-185 0 2 -266z"/>
<path d="M2670 1601 l0 -269 48 1 47 2 0 178 c0 97 2 177 5 177 3 -1 22 -25
43 -55 20 -30 79 -110 131 -177 l94 -124 43 1 44 0 3 268 2 267 -50 0 -50 0 0
-182 0 -181 -136 181 -136 182 -44 0 -44 0 0 -269z"/>
<path d="M4022 1605 l3 -266 188 -2 187 -2 0 47 0 48 -140 0 -140 0 0 65 0 65
120 0 120 0 0 45 0 45 -120 0 -121 0 3 61 3 61 133 -1 132 -2 0 51 0 50 -185
0 -185 0 2 -265z"/>
<path d="M4612 1603 l3 -268 45 0 45 0 5 178 5 178 133 -178 133 -177 44 -2
45 -1 0 268 0 269 -50 0 -50 0 0 -177 0 -177 -132 177 -133 177 -47 0 -48 0 2
-267z"/>
<path d="M5302 1603 l3 -268 49 0 49 0 -2 108 -2 107 130 0 131 0 0 -108 0
-107 50 0 50 0 0 268 0 267 -50 0 -50 0 0 -110 0 -110 -130 0 -130 0 0 110 0
110 -50 0 -50 0 2 -267z"/>
<path d="M6060 1613 c-56 -142 -104 -263 -106 -269 -3 -6 15 -10 48 -10 l53 1
22 55 22 55 118 3 118 3 20 -58 20 -58 53 -3 c28 -2 52 1 52 5 0 4 -46 126
-102 271 l-102 262 -57 0 -58 0 -101 -257z m201 29 l36 -97 -75 -3 c-41 -2
-76 -1 -78 1 -2 2 13 49 34 105 20 55 39 98 42 96 2 -3 21 -49 41 -102z"/>
<path d="M6662 1604 l3 -267 47 -1 47 -1 3 95 3 95 37 3 c36 3 38 1 106 -95
l70 -98 54 2 c29 0 54 2 55 2 1 1 -27 41 -62 90 -36 50 -66 95 -67 100 -2 6
13 19 32 29 65 35 97 126 69 199 -31 83 -105 113 -281 113 l-118 0 2 -266z
m248 163 c42 -14 66 -53 56 -90 -10 -41 -42 -55 -126 -58 l-75 -2 -3 68 c-2
37 -1 74 2 82 7 17 97 17 146 0z"/>
<path d="M7282 1603 l3 -268 48 1 48 1 0 264 0 264 -51 3 -50 3 2 -268z"/>
<path d="M7673 1612 c-57 -141 -103 -261 -103 -267 0 -5 23 -9 50 -10 l51 0
21 58 21 57 117 0 118 0 22 -59 22 -59 54 1 c36 0 53 4 51 11 -3 6 -51 127
-107 269 l-101 257 -57 0 -57 0 -102 -258z m234 -69 c-3 -2 -38 -3 -79 -1
l-75 3 34 90 c18 50 36 97 39 105 3 9 23 -29 45 -89 22 -57 38 -105 36 -108z"/>
</g>
</svg>
