<?xml version="1.0" standalone="no"?>
<!DOCTYPE svg PUBLIC "-//W3C//DTD SVG 20010904//EN"
 "http://www.w3.org/TR/2001/REC-SVG-20010904/DTD/svg10.dtd">
<svg version="1.0" xmlns="http://www.w3.org/2000/svg"
 width="1024.000000pt" height="1024.000000pt" viewBox="0 0 1024.000000 1024.000000"
 preserveAspectRatio="xMidYMid meet">

<g transform="translate(0.000000,1024.000000) scale(0.100000,-0.100000)"
fill="#000000" stroke="none">
<path d="M4440 7306 c0 -2 8 -10 18 -17 15 -13 16 -12 3 4 -13 16 -21 21 -21
13z"/>
<path d="M4550 7186 c0 -2 8 -10 18 -17 15 -13 16 -12 3 4 -13 16 -21 21 -21
13z"/>
<path d="M5118 7123 c7 -3 16 -2 19 1 4 3 -2 6 -13 5 -11 0 -14 -3 -6 -6z"/>
<path d="M5578 7103 c7 -3 16 -2 19 1 4 3 -2 6 -13 5 -11 0 -14 -3 -6 -6z"/>
<path d="M6250 6897 c0 -2 15 -14 33 -27 20 -15 27 -17 18 -6 -13 16 -51 41
-51 33z"/>
<path d="M4008 6883 c7 -3 16 -2 19 1 4 3 -2 6 -13 5 -11 0 -14 -3 -6 -6z"/>
<path d="M6003 6883 c15 -2 37 -2 50 0 12 2 0 4 -28 4 -27 0 -38 -2 -22 -4z"/>
<path d="M4701 6754 c0 -11 3 -14 6 -6 3 7 2 16 -1 19 -3 4 -6 -2 -5 -13z"/>
<path d="M6128 6723 c6 -2 18 -2 25 0 6 3 1 5 -13 5 -14 0 -19 -2 -12 -5z"/>
<path d="M4919 6643 c-13 -16 -12 -17 4 -4 9 7 17 15 17 17 0 8 -8 3 -21 -13z"/>
<path d="M5050 6550 c-39 -33 -117 -96 -173 -140 -56 -43 -149 -116 -207 -161
-58 -46 -154 -121 -215 -168 -310 -239 -572 -446 -588 -464 -22 -25 -19 -80 7
-119 24 -36 94 -62 146 -54 l40 6 0 -327 c0 -181 -4 -332 -8 -338 -4 -5 -16
-11 -27 -13 -56 -8 -153 -48 -177 -73 -27 -26 -28 -32 -28 -127 0 -83 3 -102
18 -115 17 -16 121 -17 1289 -17 1218 0 1271 1 1286 18 24 26 25 213 1 237
-26 25 -71 45 -147 65 l-72 18 -3 341 -2 341 27 -11 c32 -12 88 -4 116 16 50
35 74 120 45 157 -12 15 -52 47 -343 273 -66 51 -131 103 -145 115 -14 12
-128 104 -254 203 -126 100 -290 230 -364 290 -74 59 -138 107 -142 107 -4 0
-40 -27 -80 -60z m147 -3 c12 -11 20 -24 17 -28 -3 -5 1 -7 8 -4 7 3 45 -21
85 -52 105 -85 233 -186 275 -217 21 -16 35 -33 31 -39 -3 -5 -1 -7 5 -3 6 3
38 -17 72 -45 34 -28 132 -107 218 -176 86 -68 168 -134 182 -146 14 -12 51
-41 83 -65 32 -23 55 -47 52 -52 -4 -6 1 -7 11 -3 13 5 15 3 9 -7 -5 -8 -4
-11 2 -7 6 4 38 -16 72 -45 69 -58 77 -87 41 -145 -31 -51 -85 -69 -152 -50
l-28 7 0 -350 0 -350 28 -6 c82 -18 183 -58 197 -77 18 -25 21 -187 5 -218
-11 -19 -35 -19 -1280 -19 -1140 0 -1270 2 -1284 16 -19 18 -23 165 -6 209 11
29 65 56 155 77 33 7 61 20 66 30 5 10 8 160 7 345 l-3 328 -60 0 c-73 0 -108
20 -130 72 -19 46 -7 92 33 115 15 9 36 25 47 35 11 10 45 37 75 60 30 22 93
70 140 107 47 37 105 83 130 102 25 19 76 59 114 89 38 30 74 51 79 48 6 -3 7
-1 4 4 -4 6 3 18 16 26 12 8 33 24 46 36 23 20 36 25 54 22 5 -1 6 3 3 8 -8
12 121 114 134 106 6 -4 9 -1 8 5 -2 7 47 50 107 97 61 47 143 114 184 149 74
63 75 64 100 48 14 -9 36 -26 48 -37z"/>
<path d="M4975 6134 c-229 -175 -329 -252 -427 -331 -50 -40 -95 -70 -101 -66
-5 3 -7 1 -4 -4 9 -15 -19 -36 -35 -27 -7 4 -10 3 -5 -1 10 -12 -33 -56 -47
-48 -6 3 -8 3 -4 -1 3 -4 -1 -15 -10 -24 -16 -16 -17 -53 -12 -417 l5 -400 50
1 c495 11 500 12 503 29 2 10 -2 22 -8 29 -9 8 -11 6 -6 -10 6 -21 4 -21 -216
-28 -123 -3 -244 -9 -270 -13 l-48 -6 0 400 0 401 54 45 c65 56 229 187 356
285 52 39 159 122 238 182 l143 111 196 -153 c107 -84 207 -162 222 -173 49
-36 216 -169 234 -186 11 -10 41 -35 68 -56 l48 -38 1 -409 0 -408 -32 5 c-58
10 -432 18 -466 10 -21 -5 23 -8 115 -8 81 0 203 -4 271 -8 l122 -8 0 414 0
414 -28 24 c-15 14 -41 35 -59 48 -18 14 -30 28 -27 33 3 5 1 7 -4 6 -14 -4
-93 62 -87 73 3 5 0 6 -8 3 -8 -3 -21 3 -28 14 -8 11 -18 19 -22 20 -5 0 -27
15 -50 33 -23 19 -125 98 -227 177 -102 78 -196 152 -210 162 -13 11 -27 20
-30 19 -3 0 -72 -52 -155 -115z"/>
<path d="M5686 6102 c-3 -5 1 -9 9 -9 8 0 15 4 15 9 0 4 -4 8 -9 8 -6 0 -12
-4 -15 -8z"/>
<path d="M4888 5706 c-17 -12 -18 -43 -16 -417 l3 -404 5 405 5 405 235 0 235
0 0 -432 c0 -237 3 -426 7 -420 4 7 8 202 8 434 0 407 -1 423 -19 433 -31 16
-442 13 -463 -4z"/>
<path d="M2961 4014 c-169 -45 -260 -164 -249 -324 3 -41 14 -86 28 -114 31
-65 123 -151 268 -252 139 -97 165 -130 141 -180 -31 -65 -131 -74 -280 -25
-119 39 -134 39 -146 4 -15 -42 -16 -166 -2 -196 19 -42 111 -70 269 -83 221
-17 387 61 435 205 25 78 18 239 -14 301 -34 64 -108 130 -256 229 -167 110
-184 141 -112 195 34 25 106 24 211 -3 110 -29 134 -28 143 7 5 15 8 62 8 105
0 70 -3 81 -23 97 -56 46 -304 66 -421 34z"/>
<path d="M3823 4012 c-14 -9 -47 -111 -98 -302 -132 -493 -204 -814 -189 -838
9 -14 30 -17 122 -20 133 -3 128 -7 165 138 l25 95 137 0 137 0 28 -109 c16
-60 34 -113 42 -117 7 -5 61 -9 119 -9 125 0 135 6 126 74 -4 24 -20 99 -37
167 -17 68 -33 135 -35 149 -22 125 -190 747 -207 767 -12 15 -313 19 -335 5z
m188 -394 c11 -40 29 -116 40 -168 11 -52 22 -105 25 -117 4 -23 2 -23 -85
-23 -49 0 -92 4 -95 8 -3 4 -1 26 4 48 5 21 11 50 13 64 14 77 69 271 75 266
2 -3 13 -38 23 -78z"/>
<path d="M4592 4008 c-9 -9 -12 -149 -12 -568 0 -527 1 -558 18 -573 16 -15
52 -17 303 -17 230 0 289 3 305 14 17 13 19 25 16 112 -1 58 -7 103 -15 112
-10 12 -35 13 -147 8 -74 -4 -153 -4 -175 -1 l-40 7 0 442 c0 361 -3 446 -14
459 -11 14 -33 17 -120 17 -70 0 -111 -4 -119 -12z"/>
<path d="M5376 4005 c-14 -15 -16 -76 -16 -574 0 -420 3 -560 12 -569 15 -15
216 -16 238 -2 13 8 15 83 17 557 2 429 0 553 -10 573 -12 24 -17 25 -119 28
-86 2 -109 0 -122 -13z"/>
<path d="M5829 4004 c-12 -14 -14 -93 -14 -448 0 -387 2 -437 18 -488 48 -151
181 -228 395 -228 216 0 336 63 388 205 17 45 19 91 22 489 2 384 1 441 -13
462 -15 23 -21 24 -113 24 -53 0 -104 -5 -112 -10 -13 -8 -16 -72 -20 -441
l-5 -431 -33 -28 c-65 -54 -187 -48 -236 11 l-26 31 0 406 c0 308 -3 413 -13
432 -12 24 -17 25 -118 28 -90 2 -108 0 -120 -14z"/>
<path d="M6832 4008 c-9 -9 -12 -149 -12 -569 0 -494 2 -559 16 -573 19 -20
193 -23 212 -4 9 9 12 85 12 280 0 154 4 268 9 268 9 0 34 -40 231 -365 57
-93 110 -176 119 -182 15 -13 107 -18 135 -7 14 6 16 64 16 563 0 488 -2 559
-16 579 -14 20 -23 22 -114 22 -90 0 -100 -2 -110 -21 -8 -13 -10 -107 -8
-290 2 -148 1 -269 -2 -269 -3 0 -72 118 -154 263 -198 348 -173 317 -255 317
-39 0 -72 -5 -79 -12z"/>
<path d="M2735 2545 c-25 -24 -25 -26 -25 -214 l0 -189 31 -26 31 -26 2368 2
2368 3 26 24 26 24 0 185 0 184 -29 29 -29 29 -2372 0 -2371 0 -24 -25z m4790
-11 c25 -26 25 -30 25 -201 0 -96 -4 -183 -10 -193 -5 -10 -25 -23 -42 -28
-26 -8 -4539 -11 -4705 -3 -18 0 -42 10 -53 21 -19 19 -20 33 -20 199 0 165 2
180 21 205 l20 26 2370 0 2370 0 24 -26z"/>
</g>
</svg>
